<svg width="102" height="27" viewBox="0 0 102 27" fill="none" xmlns="http://www.w3.org/2000/svg">
<path d="M16.7171 12.5653C16.6923 9.62966 19.1363 8.20286 19.2437 8.13726C17.8565 6.13646 15.7097 5.85766 14.9583 5.83306C13.1583 5.64446 11.4078 6.90726 10.4913 6.90726C9.55828 6.90726 8.13808 5.85766 6.6188 5.88226C4.6619 5.91506 2.8206 7.03846 1.8215 8.79326C-0.250992 12.3603 1.29306 17.6083 3.28299 20.4947C4.28208 21.9051 5.43805 23.4877 6.96559 23.4303C8.45184 23.3729 9.01332 22.4873 10.8051 22.4873C12.5886 22.4873 13.1088 23.4303 14.6611 23.3975C16.2629 23.3729 17.262 21.9789 18.2281 20.5521C19.3758 18.9367 19.8382 17.3377 19.8547 17.2557C19.8134 17.2393 16.7501 16.0749 16.7171 12.5653ZM13.7858 3.93886C14.5868 2.94666 15.1317 1.59366 14.9831 0.216064C13.8271 0.265264 12.3739 1.01146 11.5399 1.98726C10.8051 2.84826 10.1445 4.25046 10.3097 5.57066C11.6143 5.66906 12.9519 4.91466 13.7858 3.93886ZM38.2842 23.2253H36.2035L35.064 19.6665H31.1007L30.019 23.2253H27.9961L31.9181 11.1139H34.3457L38.2842 23.2253ZM34.7255 18.1741L33.6934 15.0171C33.586 14.6891 33.3796 13.9347 33.0824 12.7375H33.0411C32.9172 13.2541 32.7273 14.0167 32.4631 15.0171L31.4475 18.1741H34.7255ZM48.366 18.7563C48.366 20.2405 47.9614 21.4131 47.144 22.2741C46.4173 23.0449 45.5091 23.4221 44.4357 23.4221C43.2714 23.4221 42.4375 23.0121 41.9256 22.1839V26.7677H39.9687V17.3623C39.9687 16.4275 39.9439 15.4763 39.8943 14.4923H41.6118L41.7191 15.8781H41.7522C42.4045 14.8367 43.3953 14.3119 44.7164 14.3119C45.7568 14.3119 46.6155 14.7219 47.3091 15.5337C48.0192 16.3537 48.366 17.4197 48.366 18.7563ZM46.3761 18.8219C46.3761 17.9691 46.1861 17.2721 45.7981 16.7227C45.377 16.1487 44.8072 15.8617 44.0971 15.8617C43.6182 15.8617 43.1806 16.0257 42.7843 16.3373C42.3962 16.6571 42.132 17.0671 42.0164 17.5837C41.9586 17.8215 41.9256 18.0183 41.9256 18.1741V19.6337C41.9256 20.2651 42.1237 20.8063 42.5118 21.2409C42.8999 21.6755 43.4118 21.8969 44.0393 21.8969C44.7742 21.8969 45.3439 21.6099 45.7568 21.0523C46.1696 20.4865 46.3761 19.7485 46.3761 18.8219ZM58.4725 18.7563C58.4725 20.2405 58.0679 21.4131 57.2505 22.2741C56.5239 23.0449 55.6156 23.4221 54.5422 23.4221C53.378 23.4221 52.544 23.0121 52.0321 22.1839V26.7677H50.0752V17.3623C50.0752 16.4275 50.0504 15.4763 50.0009 14.4923H51.7183L51.8256 15.8781H51.8587C52.511 14.8367 53.5018 14.3119 54.8229 14.3119C55.8633 14.3119 56.722 14.7219 57.4156 15.5337C58.1257 16.3537 58.4725 17.4197 58.4725 18.7563ZM56.4826 18.8219C56.4826 17.9691 56.2927 17.2721 55.9046 16.7227C55.4835 16.1487 54.9137 15.8617 54.2037 15.8617C53.7247 15.8617 53.2871 16.0257 52.8908 16.3373C52.5027 16.6571 52.2467 17.0671 52.1229 17.5837C52.0651 17.8215 52.0321 18.0183 52.0321 18.1741V19.6337C52.0321 20.2651 52.2302 20.8063 52.6183 21.2409C53.0064 21.6755 53.5183 21.8969 54.1459 21.8969C54.8807 21.8969 55.4587 21.6099 55.8633 21.0523C56.2844 20.4865 56.4826 19.7485 56.4826 18.8219ZM69.7845 19.8305C69.7845 20.8637 69.4212 21.7001 68.7029 22.3479C67.9102 23.0531 66.8038 23.4057 65.3836 23.4057C64.0707 23.4057 63.0221 23.1515 62.2294 22.6513L62.6836 21.0359C63.5423 21.5361 64.4836 21.7903 65.5074 21.7903C66.2423 21.7903 66.8203 21.6263 67.2249 21.2983C67.6377 20.9703 67.8441 20.5275 67.8441 19.9781C67.8441 19.4861 67.6708 19.0761 67.3405 18.7399C67.0019 18.4037 66.4405 18.0921 65.6561 17.8051C63.501 17.0097 62.4358 15.8535 62.4358 14.3365C62.4358 13.3443 62.8157 12.5325 63.567 11.8929C64.3184 11.2615 65.3175 10.9417 66.5643 10.9417C67.6708 10.9417 68.5955 11.1303 69.3304 11.5157L68.835 13.0901C68.1414 12.7211 67.3652 12.5325 66.49 12.5325C65.8047 12.5325 65.2597 12.7047 64.8716 13.0327C64.5496 13.3361 64.3845 13.6969 64.3845 14.1315C64.3845 14.6071 64.5744 15.0089 64.946 15.3123C65.268 15.5993 65.8625 15.9109 66.7212 16.2471C67.7698 16.6653 68.5377 17.1573 69.0332 17.7231C69.5368 18.2889 69.7845 18.9941 69.7845 19.8305ZM76.258 15.9519H74.1029V20.1913C74.1029 21.2655 74.4827 21.8067 75.2424 21.8067C75.5892 21.8067 75.8782 21.7739 76.1094 21.7165L76.1672 23.1925C75.7791 23.3319 75.2754 23.4057 74.6479 23.4057C73.8717 23.4057 73.2772 23.1679 72.8396 22.7005C72.402 22.2331 72.1873 21.4459 72.1873 20.3471V15.9437H70.9075V14.4923H72.1873V12.8933L74.1029 12.3193V14.4923H76.258V15.9519ZM85.9517 18.7891C85.9517 20.1339 85.5636 21.2327 84.7957 22.0937C83.9865 22.9793 82.9131 23.4221 81.5755 23.4221C80.2874 23.4221 79.2553 22.9957 78.4874 22.1511C77.7195 21.3065 77.3397 20.2323 77.3397 18.9367C77.3397 17.5837 77.736 16.4767 78.5204 15.6157C79.3131 14.7547 80.3782 14.3201 81.7158 14.3201C83.0039 14.3201 84.0443 14.7465 84.8287 15.5993C85.5801 16.4193 85.9517 17.4853 85.9517 18.7891ZM83.9287 18.8301C83.9287 18.0265 83.7553 17.3459 83.4085 16.7719C82.9957 16.0749 82.4094 15.7305 81.6498 15.7305C80.8654 15.7305 80.2626 16.0749 79.858 16.7719C79.503 17.3459 79.3378 18.0429 79.3378 18.8711C79.3378 19.6747 79.5112 20.3635 79.858 20.9293C80.2791 21.6263 80.8736 21.9707 81.6333 21.9707C82.3764 21.9707 82.9626 21.6181 83.392 20.9129C83.7471 20.3225 83.9287 19.6337 83.9287 18.8301ZM92.3095 16.1979C92.1196 16.1651 91.9132 16.1487 91.6903 16.1487C91.0049 16.1487 90.4682 16.4029 90.0967 16.9195C89.7746 17.3705 89.6095 17.9527 89.6095 18.6415V23.2253H87.6526V17.2393C87.6526 16.2307 87.6361 15.3123 87.5948 14.4923H89.2957L89.37 16.1651H89.4278C89.6343 15.5911 89.9563 15.1237 90.4022 14.7793C90.8398 14.4677 91.3104 14.3119 91.8141 14.3119C91.9958 14.3119 92.1609 14.3283 92.3013 14.3447L92.3095 16.1979ZM101.045 18.4447C101.045 18.7891 101.021 19.0843 100.971 19.3221H95.1086C95.1334 20.1831 95.4141 20.8473 95.9591 21.2983C96.4545 21.7001 97.0903 21.9051 97.8747 21.9051C98.7417 21.9051 99.5344 21.7657 100.244 21.4951L100.55 22.8399C99.716 23.2007 98.7334 23.3811 97.6022 23.3811C96.2398 23.3811 95.1664 22.9793 94.3903 22.1839C93.6141 21.3885 93.2261 20.3143 93.2261 18.9777C93.2261 17.6657 93.5893 16.5669 94.316 15.6895C95.0756 14.7547 96.0995 14.2873 97.3876 14.2873C98.6509 14.2873 99.6169 14.7547 100.261 15.6895C100.781 16.4439 101.045 17.3541 101.045 18.4447ZM99.1793 17.9445C99.1958 17.3705 99.0637 16.8703 98.7995 16.4521C98.461 15.9109 97.9408 15.6403 97.2472 15.6403C96.6114 15.6403 96.0912 15.9027 95.6949 16.4275C95.3729 16.8457 95.1747 17.3541 95.1169 17.9363L99.1793 17.9445Z" fill="black"/>
</svg>
