<svg width="68" height="7" viewBox="0 0 68 7" fill="none" xmlns="http://www.w3.org/2000/svg">
<path d="M5.78423 6.78434H4.76037L4.1989 5.03773H2.25025L1.71355 6.78434H0.722717L2.64659 0.831132H3.83559L5.78423 6.78434ZM4.0255 4.29973L3.52183 2.74173C3.47228 2.58593 3.3732 2.20873 3.21632 1.61833H3.19981C3.13375 1.87253 3.05118 2.24153 2.91081 2.74173L2.41539 4.29973H4.0255ZM10.6063 2.48753L8.97142 6.78434H8.03838L6.45304 2.48753H7.48517L8.22004 4.75893C8.34389 5.13613 8.45123 5.49693 8.5338 5.84134H8.55857C8.63288 5.52974 8.74023 5.16893 8.87234 4.75893L9.59895 2.48753H10.6063ZM14.0907 6.78434L14.0164 6.29234H13.9917C13.6944 6.68594 13.2733 6.88274 12.7283 6.88274C11.9522 6.88274 11.4072 6.34154 11.4072 5.61993C11.4072 4.56213 12.332 4.01273 13.9339 4.01273V3.93073C13.9339 3.36493 13.6283 3.08613 13.0338 3.08613C12.6045 3.08613 12.2329 3.19273 11.9026 3.40593L11.7045 2.78273C12.1008 2.53673 12.6045 2.41373 13.1907 2.41373C14.3219 2.41373 14.8917 3.00413 14.8917 4.19313V5.77574C14.8917 6.21034 14.9082 6.54654 14.9577 6.80074L14.0907 6.78434ZM13.9586 4.64413C12.8935 4.64413 12.3568 4.89833 12.3568 5.51334C12.3568 5.96434 12.6293 6.18574 13.0173 6.18574C13.5045 6.18574 13.9586 5.81674 13.9586 5.30834V4.64413ZM17.0302 1.78233C16.7082 1.78233 16.4605 1.53633 16.4605 1.20833C16.4605 0.880332 16.7165 0.642531 17.0467 0.642531C17.377 0.642531 17.6412 0.880332 17.633 1.20833C17.633 1.55273 17.3853 1.78233 17.0302 1.78233ZM16.5678 2.48753H17.5256V6.77614H16.5678V2.48753ZM19.2348 0.519531H20.1926V6.77614H19.2348V0.519531ZM24.2716 6.78434L24.1973 6.29234H24.1725C23.8752 6.68594 23.4541 6.88274 22.9092 6.88274C22.133 6.88274 21.5881 6.34154 21.5881 5.61993C21.5881 4.56213 22.5128 4.01273 24.1147 4.01273V3.93073C24.1147 3.36493 23.8092 3.08613 23.2147 3.08613C22.7853 3.08613 22.4138 3.19273 22.0835 3.40593L21.8853 2.77453C22.2816 2.52853 22.7853 2.40553 23.3716 2.40553C24.5028 2.40553 25.0725 2.99593 25.0725 4.18493V5.76753C25.0725 6.20214 25.089 6.53834 25.1303 6.79254H24.2716V6.78434ZM24.1395 4.64413C23.0743 4.64413 22.5376 4.89833 22.5376 5.51334C22.5376 5.96434 22.8101 6.18574 23.1982 6.18574C23.6853 6.18574 24.1395 5.81674 24.1395 5.30834V4.64413ZM28.9698 6.88274C28.3588 6.88274 27.9046 6.62854 27.6074 6.12014H27.5909L27.5331 6.78434H26.7156C26.7404 6.43994 26.7487 6.05453 26.7487 5.62813V0.519531H27.7147V3.11893H27.7312C28.0202 2.64333 28.4744 2.40553 29.1101 2.40553C30.1505 2.40553 30.8771 3.29113 30.8771 4.57853C30.8771 5.90694 30.068 6.88274 28.9698 6.88274ZM28.7716 3.15173C28.2184 3.15173 27.7147 3.62733 27.7147 4.29153V5.04593C27.7147 5.63633 28.1689 6.12014 28.7551 6.12014C29.4735 6.12014 29.9028 5.53794 29.9028 4.61133C29.9028 3.74213 29.4569 3.15173 28.7716 3.15173ZM32.2973 0.519531H33.2551V6.77614H32.2973V0.519531ZM38.4818 4.86553H35.6001C35.6166 5.67733 36.1616 6.13654 36.9625 6.13654C37.3919 6.13654 37.78 6.06274 38.1268 5.93153L38.2754 6.59574C37.8708 6.77614 37.3919 6.85814 36.8304 6.85814C35.4763 6.85814 34.6753 6.01354 34.6753 4.69333C34.6753 3.38133 35.4928 2.38913 36.7231 2.38913C37.8212 2.38913 38.5231 3.20093 38.5231 4.43093C38.5231 4.60313 38.5148 4.75073 38.4818 4.86553ZM37.6066 4.18493C37.6066 3.52073 37.268 3.05333 36.657 3.05333C36.1038 3.05333 35.6744 3.52893 35.6084 4.18493H37.6066ZM44.303 6.88274C43.0396 6.88274 42.2222 5.94793 42.2222 4.67693C42.2222 3.34853 43.0562 2.40553 44.3773 2.40553C45.6241 2.40553 46.458 3.29933 46.458 4.60313C46.458 5.93973 45.5993 6.88274 44.303 6.88274ZM44.3442 3.10253C43.6507 3.10253 43.2048 3.75033 43.2048 4.64413C43.2048 5.52973 43.6589 6.16934 44.336 6.16934C45.0131 6.16934 45.4672 5.48053 45.4672 4.61953C45.4589 3.75033 45.0213 3.10253 44.3442 3.10253ZM51.6186 6.78434H50.6608V4.31613C50.6608 3.55353 50.3636 3.17633 49.7856 3.17633C49.2159 3.17633 48.8278 3.66013 48.8278 4.22593V6.77614H47.87V3.71753C47.87 3.34033 47.8617 2.93033 47.8369 2.48753H48.6791L48.7204 3.15173H48.7452C49.0012 2.69253 49.5296 2.39733 50.1159 2.39733C51.0241 2.39733 51.6186 3.08613 51.6186 4.20953V6.78434ZM57.9022 3.20913H56.8453V5.29193C56.8453 5.82493 57.0352 6.08734 57.4067 6.08734C57.5719 6.08734 57.7205 6.07094 57.8361 6.04634L57.8609 6.76794C57.671 6.84174 57.4233 6.87454 57.1178 6.87454C56.3581 6.87454 55.9122 6.45634 55.9122 5.37393V3.20913H55.2847V2.49573H55.9122V1.70853L56.8535 1.42153V2.48753H57.9104V3.20913H57.9022ZM62.9885 6.78434H62.0306V4.33253C62.0306 3.56173 61.7334 3.17633 61.1554 3.17633C60.66 3.17633 60.1976 3.51253 60.1976 4.19313V6.77614H59.2398V0.519531H60.1976V3.09433H60.2141C60.5196 2.62693 60.949 2.39733 61.5105 2.39733C62.427 2.39733 62.9885 3.10253 62.9885 4.22593V6.78434ZM67.8931 4.86553H65.0114C65.0279 5.67733 65.5729 6.13654 66.3738 6.13654C66.8032 6.13654 67.1912 6.06274 67.538 5.93153L67.6867 6.59574C67.2821 6.77614 66.8032 6.85814 66.2417 6.85814C64.8876 6.85814 64.0866 6.01354 64.0866 4.69333C64.0866 3.38133 64.9041 2.38913 66.1344 2.38913C67.2325 2.38913 67.9344 3.20093 67.9344 4.43093C67.9344 4.60313 67.9261 4.75073 67.8931 4.86553ZM67.0179 4.18493C67.0179 3.52073 66.6793 3.05333 66.0683 3.05333C65.5151 3.05333 65.0775 3.52893 65.0197 4.18493H67.0179Z" fill="black"/>
</svg>
