<svg width="17" height="17" viewBox="0 0 17 17" fill="none" xmlns="http://www.w3.org/2000/svg">
<path d="M8.3813 0.607113C8.32523 0.684161 7.78365 1.81676 7.56524 2.31295C6.42158 4.91409 6.20023 5.40257 6.10874 5.51198C6.04823 5.58595 5.99806 5.60906 5.78999 5.66454C5.48009 5.74621 5.32219 5.77703 3.44364 6.12682C1.236 6.53672 0.70328 6.64613 0.64868 6.70314C0.605885 6.74937 0.62802 6.78327 0.818384 6.96819C1.27732 7.41044 1.47064 7.58149 2.91239 8.80038C4.07523 9.78351 4.34971 10.0224 4.55926 10.2412C4.77176 10.46 4.77619 10.4739 4.75553 10.7158C4.73044 11.0086 4.65223 11.44 4.32905 13.0842C4.15197 13.9872 3.98374 14.8502 3.95423 15.0027C3.86421 15.482 3.76681 16.1323 3.77124 16.217C3.77862 16.3495 3.79928 16.3449 4.28773 16.0845C4.74963 15.8379 4.89277 15.7563 6.43929 14.8533C7.76446 14.0797 7.98286 13.9549 8.26177 13.8147C8.51854 13.6852 8.62184 13.6498 8.6971 13.6636C8.84467 13.6929 9.29033 13.9225 10.7675 14.7284C11.3209 15.0305 11.9539 15.371 12.1724 15.4866C12.6298 15.727 13.316 16.0568 13.3854 16.0691C13.4223 16.0752 13.4341 16.0706 13.4488 16.0429C13.471 15.9982 13.4651 15.9289 13.3824 15.4188C13.3101 14.9704 13.288 14.8486 12.9176 12.8223C12.5427 10.7774 12.4749 10.3722 12.4749 10.1688C12.4749 9.99308 12.4911 9.97767 14.2309 8.46137C14.7784 7.98368 15.2934 7.53372 15.3746 7.46129C15.807 7.07605 16.4386 6.48278 16.4504 6.44888C16.4651 6.40728 16.4607 6.38262 16.4312 6.36721C16.3574 6.32561 15.4233 6.20387 13.8694 6.03437C11.6691 5.79398 11.2456 5.74312 11.0921 5.69535C11.0494 5.68149 10.9962 5.65067 10.9711 5.62447C10.8796 5.52893 10.6937 5.15448 9.87175 3.40395C9.0188 1.58716 8.57019 0.661047 8.50378 0.576294C8.47427 0.539311 8.41967 0.55318 8.3813 0.607113Z" fill="#E6AE3F"/>
</svg>
