<svg width="191" height="47" viewBox="0 0 191 47" fill="none" xmlns="http://www.w3.org/2000/svg">
<path d="M25.302 29V19.004H33.058V29H31.266V20.516H27.094V29H25.302ZM42.2733 25.192C42.2733 26.452 41.9466 27.4273 41.2933 28.118C40.6399 28.7993 39.7533 29.14 38.6333 29.14C37.9426 29.14 37.3266 28.986 36.7853 28.678C36.2439 28.37 35.8193 27.922 35.5113 27.334C35.2033 26.746 35.0493 26.032 35.0493 25.192C35.0493 23.932 35.3713 22.966 36.0153 22.294C36.6686 21.6127 37.5553 21.272 38.6753 21.272C39.3753 21.272 39.9959 21.426 40.5373 21.734C41.0786 22.0327 41.5033 22.476 41.8113 23.064C42.1193 23.6427 42.2733 24.352 42.2733 25.192ZM36.8553 25.192C36.8553 25.9947 36.9953 26.6153 37.2753 27.054C37.5646 27.4927 38.0266 27.712 38.6613 27.712C39.2959 27.712 39.7533 27.4927 40.0333 27.054C40.3226 26.6153 40.4673 25.9947 40.4673 25.192C40.4673 24.3893 40.3226 23.7733 40.0333 23.344C39.7533 22.9147 39.2913 22.7 38.6473 22.7C38.0219 22.7 37.5646 22.9147 37.2753 23.344C36.9953 23.7733 36.8553 24.3893 36.8553 25.192ZM47.1629 29.14C46.0709 29.14 45.2122 28.8273 44.5869 28.202C43.9616 27.5767 43.6489 26.592 43.6489 25.248C43.6489 24.3147 43.8029 23.5587 44.1109 22.98C44.4282 22.392 44.8622 21.9627 45.4129 21.692C45.9636 21.412 46.5936 21.272 47.3029 21.272C47.7789 21.272 48.2036 21.3187 48.5769 21.412C48.9502 21.5053 49.2676 21.6173 49.5289 21.748L49.0109 23.134C48.7216 23.022 48.4322 22.9287 48.1429 22.854C47.8536 22.77 47.5736 22.728 47.3029 22.728C46.0709 22.728 45.4549 23.5633 45.4549 25.234C45.4549 26.046 45.6089 26.6573 45.9169 27.068C46.2342 27.4787 46.6869 27.684 47.2749 27.684C47.6949 27.684 48.0682 27.6327 48.3949 27.53C48.7216 27.4273 49.0342 27.2873 49.3329 27.11V28.636C49.0436 28.804 48.7309 28.93 48.3949 29.014C48.0682 29.098 47.6576 29.14 47.1629 29.14ZM60.1406 21.412V29H58.5166V24.856C58.5166 24.2307 58.5399 23.6427 58.5866 23.092H58.5446L56.3046 29H54.9466L52.7066 23.092H52.6646C52.6832 23.3627 52.6972 23.6473 52.7066 23.946C52.7252 24.2447 52.7346 24.5667 52.7346 24.912V29H51.1106V21.412H53.5606L55.6466 26.914L57.7466 21.412H60.1406ZM69.1795 25.192C69.1795 26.452 68.8529 27.4273 68.1995 28.118C67.5462 28.7993 66.6595 29.14 65.5395 29.14C64.8489 29.14 64.2329 28.986 63.6915 28.678C63.1502 28.37 62.7255 27.922 62.4175 27.334C62.1095 26.746 61.9555 26.032 61.9555 25.192C61.9555 23.932 62.2775 22.966 62.9215 22.294C63.5749 21.6127 64.4615 21.272 65.5815 21.272C66.2815 21.272 66.9022 21.426 67.4435 21.734C67.9849 22.0327 68.4095 22.476 68.7175 23.064C69.0255 23.6427 69.1795 24.352 69.1795 25.192ZM63.7615 25.192C63.7615 25.9947 63.9015 26.6153 64.1815 27.054C64.4709 27.4927 64.9329 27.712 65.5675 27.712C66.2022 27.712 66.6595 27.4927 66.9395 27.054C67.2289 26.6153 67.3735 25.9947 67.3735 25.192C67.3735 24.3893 67.2289 23.7733 66.9395 23.344C66.6595 22.9147 66.1975 22.7 65.5535 22.7C64.9282 22.7 64.4709 22.9147 64.1815 23.344C63.9015 23.7733 63.7615 24.3893 63.7615 25.192ZM76.7604 22.77H74.2684V29H72.5184V22.77H70.0404V21.412H76.7604V22.77ZM82.1982 21.272C83.0849 21.272 83.7989 21.6033 84.3402 22.266C84.8816 22.9193 85.1522 23.8947 85.1522 25.192C85.1522 26.4893 84.8722 27.474 84.3122 28.146C83.7616 28.8087 83.0429 29.14 82.1562 29.14C81.5962 29.14 81.1436 29.0373 80.7982 28.832C80.4529 28.6267 80.1776 28.3887 79.9722 28.118H79.8602C79.8882 28.2953 79.9116 28.4913 79.9302 28.706C79.9582 28.9113 79.9722 29.1027 79.9722 29.28V32.36H78.2082V21.412H79.6362L79.8882 22.42H79.9722C80.1776 22.1027 80.4576 21.832 80.8122 21.608C81.1669 21.384 81.6289 21.272 82.1982 21.272ZM81.6942 22.7C81.0689 22.7 80.6256 22.8867 80.3642 23.26C80.1122 23.6333 79.9816 24.198 79.9722 24.954V25.178C79.9722 25.99 80.0936 26.6153 80.3362 27.054C80.5882 27.4833 81.0502 27.698 81.7222 27.698C82.2729 27.698 82.6789 27.474 82.9402 27.026C83.2109 26.5687 83.3462 25.948 83.3462 25.164C83.3462 24.38 83.2109 23.7733 82.9402 23.344C82.6789 22.9147 82.2636 22.7 81.6942 22.7ZM90.0239 21.272C91.0412 21.272 91.8439 21.5753 92.4319 22.182C93.0292 22.7887 93.3279 23.6333 93.3279 24.716V25.612H88.3159C88.3346 26.3027 88.5259 26.8393 88.8899 27.222C89.2539 27.5953 89.7579 27.782 90.4019 27.782C90.8872 27.782 91.3259 27.7353 91.7179 27.642C92.1099 27.5393 92.5112 27.3947 92.9219 27.208V28.622C92.5486 28.7993 92.1612 28.93 91.7599 29.014C91.3586 29.098 90.8779 29.14 90.3179 29.14C89.5806 29.14 88.9226 29 88.3439 28.72C87.7746 28.4307 87.3266 27.9967 86.9999 27.418C86.6826 26.8393 86.5239 26.1207 86.5239 25.262C86.5239 23.9647 86.8459 22.9753 87.4899 22.294C88.1339 21.6127 88.9786 21.272 90.0239 21.272ZM90.0239 22.574C89.5479 22.574 89.1606 22.728 88.8619 23.036C88.5726 23.3347 88.4046 23.7827 88.3579 24.38H91.6199C91.6106 23.8573 91.4752 23.428 91.2139 23.092C90.9619 22.7467 90.5652 22.574 90.0239 22.574ZM101.001 22.77H98.5087V29H96.7587V22.77H94.2807V21.412H101.001V22.77ZM105.962 24.408C108.137 24.408 109.224 25.1453 109.224 26.62C109.224 27.348 108.968 27.9267 108.454 28.356C107.95 28.7853 107.129 29 105.99 29H102.448V21.412H104.212V24.408H105.962ZM107.46 26.662C107.46 26.3073 107.325 26.06 107.054 25.92C106.784 25.7707 106.392 25.696 105.878 25.696H104.212V27.726H105.906C106.354 27.726 106.723 27.6467 107.012 27.488C107.311 27.32 107.46 27.0447 107.46 26.662ZM120.469 22.77H117.977V29H116.227V22.77H113.749V21.412H120.469V22.77ZM128.556 25.192C128.556 26.452 128.23 27.4273 127.576 28.118C126.923 28.7993 126.036 29.14 124.916 29.14C124.226 29.14 123.61 28.986 123.068 28.678C122.527 28.37 122.102 27.922 121.794 27.334C121.486 26.746 121.332 26.032 121.332 25.192C121.332 23.932 121.654 22.966 122.298 22.294C122.952 21.6127 123.838 21.272 124.958 21.272C125.658 21.272 126.279 21.426 126.82 21.734C127.362 22.0327 127.786 22.476 128.094 23.064C128.402 23.6427 128.556 24.352 128.556 25.192ZM123.138 25.192C123.138 25.9947 123.278 26.6153 123.558 27.054C123.848 27.4927 124.31 27.712 124.944 27.712C125.579 27.712 126.036 27.4927 126.316 27.054C126.606 26.6153 126.75 25.9947 126.75 25.192C126.75 24.3893 126.606 23.7733 126.316 23.344C126.036 22.9147 125.574 22.7 124.93 22.7C124.305 22.7 123.848 22.9147 123.558 23.344C123.278 23.7733 123.138 24.3893 123.138 25.192ZM136.876 23.372C136.876 23.8013 136.741 24.156 136.47 24.436C136.209 24.716 135.835 24.898 135.35 24.982V25.038C135.863 25.1033 136.283 25.2807 136.61 25.57C136.946 25.8593 137.114 26.2513 137.114 26.746C137.114 27.3993 136.862 27.9407 136.358 28.37C135.854 28.79 135.023 29 133.866 29H130.38V21.412H133.852C134.431 21.412 134.944 21.4727 135.392 21.594C135.849 21.7153 136.209 21.9207 136.47 22.21C136.741 22.49 136.876 22.8773 136.876 23.372ZM135.084 23.526C135.084 22.9847 134.65 22.714 133.782 22.714H132.144V24.422H133.544C134.571 24.422 135.084 24.1233 135.084 23.526ZM135.28 26.676C135.28 26.3307 135.145 26.0833 134.874 25.934C134.603 25.7753 134.207 25.696 133.684 25.696H132.144V27.726H133.726C134.202 27.726 134.58 27.6467 134.86 27.488C135.14 27.3293 135.28 27.0587 135.28 26.676ZM141.935 21.272C142.915 21.272 143.657 21.4867 144.161 21.916C144.675 22.3453 144.931 23.008 144.931 23.904V29H143.685L143.335 27.95H143.279C142.953 28.3607 142.607 28.664 142.243 28.86C141.879 29.0467 141.385 29.14 140.759 29.14C140.078 29.14 139.513 28.9487 139.065 28.566C138.617 28.1833 138.393 27.5907 138.393 26.788C138.393 26.004 138.678 25.416 139.247 25.024C139.826 24.632 140.699 24.4127 141.865 24.366L143.181 24.324V23.946C143.181 23.47 143.065 23.1293 142.831 22.924C142.598 22.7093 142.271 22.602 141.851 22.602C141.469 22.602 141.1 22.658 140.745 22.77C140.4 22.882 140.055 23.0127 139.709 23.162L139.149 21.93C139.523 21.734 139.947 21.5753 140.423 21.454C140.909 21.3327 141.413 21.272 141.935 21.272ZM142.257 25.444C141.483 25.472 140.946 25.6073 140.647 25.85C140.349 26.0833 140.199 26.4007 140.199 26.802C140.199 27.166 140.302 27.4273 140.507 27.586C140.722 27.7353 141.002 27.81 141.347 27.81C141.861 27.81 142.295 27.6653 142.649 27.376C143.004 27.0773 143.181 26.6387 143.181 26.06V25.416L142.257 25.444ZM151.132 21.272C152.018 21.272 152.732 21.6033 153.274 22.266C153.815 22.9193 154.086 23.8947 154.086 25.192C154.086 26.4893 153.806 27.474 153.246 28.146C152.695 28.8087 151.976 29.14 151.09 29.14C150.53 29.14 150.077 29.0373 149.732 28.832C149.386 28.6267 149.111 28.3887 148.906 28.118H148.794C148.822 28.2953 148.845 28.4913 148.864 28.706C148.892 28.9113 148.906 29.1027 148.906 29.28V32.36H147.142V21.412H148.57L148.822 22.42H148.906C149.111 22.1027 149.391 21.832 149.746 21.608C150.1 21.384 150.562 21.272 151.132 21.272ZM150.628 22.7C150.002 22.7 149.559 22.8867 149.298 23.26C149.046 23.6333 148.915 24.198 148.906 24.954V25.178C148.906 25.99 149.027 26.6153 149.27 27.054C149.522 27.4833 149.984 27.698 150.656 27.698C151.206 27.698 151.612 27.474 151.874 27.026C152.144 26.5687 152.28 25.948 152.28 25.164C152.28 24.38 152.144 23.7733 151.874 23.344C151.612 22.9147 151.197 22.7 150.628 22.7ZM155.905 29V21.412H157.669V24.408H159.027C160.119 24.408 160.927 24.5947 161.449 24.968C161.972 25.332 162.233 25.8827 162.233 26.62C162.233 27.348 161.986 27.9267 161.491 28.356C160.997 28.7853 160.185 29 159.055 29H155.905ZM163.395 29V21.412H165.159V29H163.395ZM158.943 27.726C159.391 27.726 159.76 27.6467 160.049 27.488C160.339 27.3293 160.483 27.054 160.483 26.662C160.483 26.3073 160.348 26.06 160.077 25.92C159.816 25.7707 159.433 25.696 158.929 25.696H157.669V27.726H158.943Z" fill="black"/>
<rect x="0.43865" y="0.43865" width="190.123" height="46.1227" rx="6.57975" stroke="black" stroke-width="0.877301"/>
</svg>
