<?xml version="1.0" standalone="no"?>
<!DOCTYPE svg PUBLIC "-//W3C//DTD SVG 20010904//EN"
 "http://www.w3.org/TR/2001/REC-SVG-20010904/DTD/svg10.dtd">
<svg version="1.0" xmlns="http://www.w3.org/2000/svg"
 width="600.000000pt" height="438.000000pt" viewBox="0 0 600.000000 438.000000"
 preserveAspectRatio="xMidYMid meet">

<g transform="translate(0.000000,438.000000) scale(0.100000,-0.100000)"
fill="#000000" stroke="none">
<path d="M2134 4363 c-16 -6 -500 -483 -1076 -1060 -972 -974 -1046 -1051
-1050 -1086 -2 -20 1 -50 8 -65 7 -15 488 -502 1070 -1084 984 -981 1062
-1056 1097 -1060 20 -2 50 1 65 8 15 6 156 142 315 301 286 288 287 290 287
332 0 23 -5 52 -11 64 -6 12 -340 352 -742 754 l-731 732 713 708 c392 389
724 724 737 745 27 43 30 77 10 116 -8 15 -144 156 -303 313 -255 254 -292
287 -324 291 -20 2 -49 -2 -65 -9z m238 -450 c104 -103 188 -191 188 -194 0
-3 -324 -329 -719 -723 -395 -395 -727 -733 -736 -750 -13 -24 -16 -43 -11
-72 7 -35 79 -110 747 -779 l739 -740 -188 -188 -187 -187 -960 960 -960 960
170 172 c341 347 1720 1728 1725 1728 3 0 89 -84 192 -187z"/>
<path d="M5274 4362 c-36 -17 -2090 -2067 -2110 -2104 -17 -32 -18 -81 -3
-111 16 -32 2089 -2105 2122 -2123 33 -18 86 -21 112 -6 11 6 149 140 307 299
314 316 314 316 276 393 -9 20 -333 351 -742 760 l-726 725 719 720 c395 396
726 731 735 745 20 30 21 72 2 108 -8 15 -143 155 -299 311 -253 252 -289 284
-324 291 -28 5 -49 2 -69 -8z m244 -455 l193 -193 -725 -717 c-785 -778 -775
-766 -746 -839 8 -21 276 -297 746 -768 l734 -735 -188 -188 -187 -187 -960
960 -960 960 360 362 c863 870 1530 1538 1535 1538 3 0 92 -87 198 -193z"/>
</g>
</svg>
