<?xml version="1.0" standalone="no"?>
<!DOCTYPE svg PUBLIC "-//W3C//DTD SVG 20010904//EN"
 "http://www.w3.org/TR/2001/REC-SVG-20010904/DTD/svg10.dtd">
<svg version="1.0" xmlns="http://www.w3.org/2000/svg"
 width="600.000000pt" height="438.000000pt" viewBox="0 0 600.000000 438.000000"
 preserveAspectRatio="xMidYMid meet">

<g transform="translate(0.000000,438.000000) scale(0.100000,-0.100000)"
fill="#000000" stroke="none">
<path d="M614 4365 c-16 -7 -158 -143 -316 -301 -314 -317 -314 -317 -276
-394 9 -20 333 -351 742 -760 l726 -725 -719 -720 c-395 -396 -726 -731 -735
-745 -20 -30 -21 -72 -2 -108 8 -15 143 -155 299 -311 250 -249 290 -285 323
-291 26 -4 49 -2 69 8 35 16 2090 2065 2111 2104 18 34 18 82 0 116 -8 15
-486 498 -1063 1074 -794 793 -1055 1048 -1078 1053 -16 4 -35 8 -41 10 -5 1
-23 -3 -40 -10z m1008 -1222 c527 -527 958 -960 958 -963 0 -3 -344 -346 -764
-762 l-764 -758 -162 217 -162 216 510 511 c451 451 512 516 522 553 9 37 8
48 -9 80 -11 22 -333 351 -745 763 l-726 725 187 187 c103 104 190 188 193
188 3 0 436 -431 962 -957z"/>
<path d="M3752 4364 c-15 -6 -156 -142 -314 -301 -287 -288 -288 -290 -288
-332 0 -23 5 -52 11 -64 6 -12 340 -352 742 -754 l731 -732 -713 -708 c-392
-389 -724 -724 -737 -745 -27 -43 -30 -77 -10 -116 8 -15 144 -156 303 -313
255 -254 292 -287 324 -291 20 -2 49 2 65 9 16 6 500 483 1076 1060 972 974
1046 1051 1050 1086 2 20 -1 50 -8 65 -7 15 -488 502 -1070 1084 -984 981
-1062 1056 -1097 1060 -20 2 -50 -1 -65 -8z m1013 -1224 l960 -960 -80 -81
c-44 -44 -389 -386 -766 -760 l-687 -679 -156 210 c-86 116 -156 216 -156 222
0 7 229 242 509 522 562 564 544 542 503 622 -12 23 -319 337 -746 764 l-726
725 187 187 c103 104 190 188 193 188 3 0 437 -432 965 -960z"/>
</g>
</svg>
