<?xml version="1.0" standalone="no"?>
<!DOCTYPE svg PUBLIC "-//W3C//DTD SVG 20010904//EN"
 "http://www.w3.org/TR/2001/REC-SVG-20010904/DTD/svg10.dtd">
<svg version="1.0" xmlns="http://www.w3.org/2000/svg"
 width="574.000000pt" height="800.000000pt" viewBox="0 0 574.000000 800.000000"
 preserveAspectRatio="xMidYMid meet">

<g transform="translate(0.000000,800.000000) scale(0.100000,-0.100000)"
fill="#000000" stroke="none">
<path d="M2835 7915 c-32 -11 -305 -280 -1426 -1402 -1218 -1218 -1389 -1393
-1398 -1428 -23 -87 -23 -86 382 -492 204 -205 385 -379 403 -388 40 -19 97
-19 132 -1 15 8 459 447 987 975 l960 961 955 -955 c537 -536 967 -959 983
-965 40 -14 93 -13 125 4 15 8 199 187 409 398 416 417 410 410 383 495 -10
31 -268 294 -1374 1401 -748 750 -1374 1371 -1391 1381 -43 26 -84 31 -130 16z
m1295 -1600 l1245 -1245 -250 -250 -250 -250 -950 949 c-522 522 -964 956
-982 965 -37 18 -80 20 -120 6 -15 -6 -289 -270 -608 -588 -319 -317 -663
-659 -765 -760 l-186 -182 -284 195 c-157 107 -285 199 -285 205 0 10 2173
2200 2183 2200 4 0 567 -560 1252 -1245z"/>
<path d="M2815 3795 c-17 -9 -652 -637 -1412 -1398 -1212 -1213 -1383 -1387
-1392 -1422 -23 -87 -23 -86 382 -493 205 -205 385 -381 402 -389 35 -19 103
-20 136 -3 13 7 457 445 987 974 l962 961 949 -949 c522 -522 956 -953 966
-958 38 -22 80 -28 119 -17 35 9 95 65 419 387 405 404 417 419 403 499 -7 34
-149 180 -1374 1408 -752 754 -1383 1381 -1403 1393 -43 26 -100 28 -144 7z
m2308 -3087 l-253 -253 -962 962 c-904 902 -966 962 -1004 968 -28 4 -54 1
-80 -10 -28 -11 -253 -230 -811 -787 l-772 -771 -29 19 c-15 11 -148 100 -295
199 l-267 180 1118 1118 1117 1117 1245 -1245 1245 -1245 -252 -252z"/>
</g>
</svg>
